<svg xmlns="http://www.w3.org/2000/svg" width="375" height="812" viewBox="0 0 375 812">
  <defs>
    <linearGradient id="navGrad2" x1="0" y1="0" x2="0" y2="1">
      <stop offset="0%" stop-color="#1a3a8a"/>
      <stop offset="100%" stop-color="#152e75"/>
    </linearGradient>
    <linearGradient id="btnGrad2" x1="0" y1="0" x2="1" y2="1">
      <stop offset="0%" stop-color="#1a3a8a"/>
      <stop offset="100%" stop-color="#2563b0"/>
    </linearGradient>
    <linearGradient id="progressGrad2" x1="0" y1="0" x2="1" y2="0">
      <stop offset="0%" stop-color="#1a3a8a"/>
      <stop offset="100%" stop-color="#2563b0"/>
    </linearGradient>
    <linearGradient id="accGrad78" x1="0%" y1="0%" x2="100%" y2="0%">
      <stop offset="0%" stop-color="#1a3a8a"/>
      <stop offset="100%" stop-color="#2563b0"/>
    </linearGradient>
    <linearGradient id="accGrad66" x1="0%" y1="0%" x2="100%" y2="0%">
      <stop offset="0%" stop-color="#1a3a8a"/>
      <stop offset="100%" stop-color="#60a5fa"/>
    </linearGradient>
    <linearGradient id="greenGrad2" x1="0" y1="0" x2="1" y2="0">
      <stop offset="0%" stop-color="#16a34a"/>
      <stop offset="100%" stop-color="#34d399"/>
    </linearGradient>
    <filter id="cardShadow2" x="-5%" y="-3%" width="110%" height="112%">
      <feDropShadow dx="0" dy="4" stdDeviation="8" flood-color="#1a3a8a" flood-opacity="0.07"/>
    </filter>
    <clipPath id="phoneClip2">
      <rect x="0" y="0" width="375" height="812" rx="40"/>
    </clipPath>
  </defs>

  <rect width="375" height="812" rx="40" fill="#eef1f8"/>
  <g clip-path="url(#phoneClip2)">

    <!-- Status Bar -->
    <rect x="0" y="0" width="375" height="50" fill="#eef1f8"/>
    <text x="32" y="32" font-family="Inter" font-size="15" font-weight="700" fill="#1a1a2e">9:41</text>
    <rect x="290" y="20" width="22" height="11" rx="2" stroke="#1a1a2e" stroke-width="1.2" fill="none"/>
    <rect x="292" y="22" width="16" height="7" rx="1" fill="#1a1a2e"/>
    <rect x="314" y="23" width="2" height="5" rx="1" fill="#1a1a2e"/>

    <!-- Page Title -->
    <text x="187" y="78" font-family="'Rounded Mplus 1c'" font-size="20" font-weight="800" fill="#1a1a2e" text-anchor="middle">マイページ</text>

    <!-- Accuracy Circles Row -->
    <g transform="translate(36,96)">
      <!-- Word Accuracy Circle - 78% -->
      <rect x="0" y="0" width="145" height="160" rx="20" fill="white" filter="url(#cardShadow2)"/>
      <circle cx="72" cy="70" r="45" fill="none" stroke="#e2e6f0" stroke-width="9"/>
      <circle cx="72" cy="70" r="45" fill="none" stroke="url(#accGrad78)" stroke-width="9"
              stroke-dasharray="220.9" stroke-dashoffset="48.6" stroke-linecap="round"
              transform="rotate(-90,72,70)"/>
      <text x="72" y="76" font-family="Inter" font-size="28" font-weight="800" fill="#1a3a8a" text-anchor="middle">78%</text>
      <text x="72" y="145" font-family="'Rounded Mplus 1c'" font-size="11" font-weight="700" fill="#64748b" text-anchor="middle">単語 正答率</text>
    </g>
    <g transform="translate(194,96)">
      <!-- Fill Accuracy Circle - 66% -->
      <rect x="0" y="0" width="145" height="160" rx="20" fill="white" filter="url(#cardShadow2)"/>
      <circle cx="72" cy="70" r="45" fill="none" stroke="#e2e6f0" stroke-width="9"/>
      <circle cx="72" cy="70" r="45" fill="none" stroke="url(#accGrad66)" stroke-width="9"
              stroke-dasharray="220.9" stroke-dashoffset="75.1" stroke-linecap="round"
              transform="rotate(-90,72,70)"/>
      <text x="72" y="76" font-family="Inter" font-size="28" font-weight="800" fill="#1a3a8a" text-anchor="middle">66%</text>
      <text x="72" y="145" font-family="'Rounded Mplus 1c'" font-size="11" font-weight="700" fill="#64748b" text-anchor="middle">穴埋め 正答率</text>
    </g>

    <!-- Rank Card -->
    <rect x="16" y="270" width="166" height="90" rx="20" fill="white" filter="url(#cardShadow2)"/>
    <circle cx="50" cy="300" r="18" fill="url(#btnGrad2)"/>
    <text x="50" y="306" font-family="Inter" font-size="16" text-anchor="middle">🏆</text>
    <text x="78" y="296" font-family="'Rounded Mplus 1c'" font-size="11" font-weight="700" fill="#64748b">ランク</text>
    <text x="78" y="314" font-family="'Rounded Mplus 1c'" font-size="16" font-weight="800" fill="#1a1a2e">シルバー</text>
    <text x="32" y="342" font-family="Inter,'Rounded Mplus 1c'" font-size="10" font-weight="700" fill="#64748b">Lv.3 420 XP</text>
    <rect x="32" y="348" width="134" height="5" rx="2.5" fill="#e2e6f0"/>
    <rect x="32" y="348" width="56" height="5" rx="2.5" fill="url(#progressGrad2)"/>

    <!-- Streak Card -->
    <rect x="193" y="270" width="166" height="90" rx="20" fill="white" filter="url(#cardShadow2)"/>
    <circle cx="227" cy="300" r="18" fill="#fff7ed"/>
    <text x="227" y="306" font-family="Inter" font-size="16" text-anchor="middle">🔥</text>
    <text x="255" y="296" font-family="'Rounded Mplus 1c'" font-size="11" font-weight="700" fill="#64748b">連続学習</text>
    <text x="255" y="318" font-family="Inter,'Rounded Mplus 1c'" font-size="22" font-weight="800" fill="#f97316">5日</text>

    <!-- Learning Calendar -->
    <rect x="16" y="374" width="343" height="120" rx="20" fill="white" filter="url(#cardShadow2)"/>
    <text x="32" y="400" font-family="Inter,'Rounded Mplus 1c'" font-size="13" font-weight="700" fill="#1a1a2e">🔥 5日連続学習</text>
    <!-- Day labels -->
    <text x="44" y="424" font-family="Inter" font-size="10" font-weight="700" fill="#94a3b8" text-anchor="middle">Sat</text>
    <text x="93" y="424" font-family="Inter" font-size="10" font-weight="700" fill="#94a3b8" text-anchor="middle">Sun</text>
    <text x="142" y="424" font-family="Inter" font-size="10" font-weight="700" fill="#94a3b8" text-anchor="middle">Mon</text>
    <text x="191" y="424" font-family="Inter" font-size="10" font-weight="700" fill="#94a3b8" text-anchor="middle">Tue</text>
    <text x="240" y="424" font-family="Inter" font-size="10" font-weight="700" fill="#94a3b8" text-anchor="middle">Wed</text>
    <text x="289" y="424" font-family="Inter" font-size="10" font-weight="700" fill="#94a3b8" text-anchor="middle">Thu</text>
    <text x="338" y="424" font-family="Inter" font-size="10" font-weight="700" fill="#94a3b8" text-anchor="middle">Fri</text>
    <!-- Day squares -->
    <rect x="28" y="432" width="32" height="32" rx="6" fill="#e2e6f0"/>
    <rect x="77" y="432" width="32" height="32" rx="6" fill="#e2e6f0"/>
    <rect x="126" y="432" width="32" height="32" rx="6" fill="#16a34a"/>
    <rect x="175" y="432" width="32" height="32" rx="6" fill="#16a34a"/>
    <rect x="224" y="432" width="32" height="32" rx="6" fill="#16a34a"/>
    <rect x="273" y="432" width="32" height="32" rx="6" fill="#16a34a"/>
    <rect x="322" y="432" width="32" height="32" rx="6" fill="#16a34a"/>
    <!-- Check marks on green -->
    <text x="142" y="454" font-family="Inter" font-size="14" fill="white" text-anchor="middle">✓</text>
    <text x="191" y="454" font-family="Inter" font-size="14" fill="white" text-anchor="middle">✓</text>
    <text x="240" y="454" font-family="Inter" font-size="14" fill="white" text-anchor="middle">✓</text>
    <text x="289" y="454" font-family="Inter" font-size="14" fill="white" text-anchor="middle">✓</text>
    <text x="338" y="454" font-family="Inter" font-size="14" fill="white" text-anchor="middle">✓</text>

    <!-- Stats Grid - 3 cards -->
    <rect x="16" y="508" width="107" height="80" rx="16" fill="white" filter="url(#cardShadow2)"/>
    <text x="69" y="540" font-family="Inter" font-size="24" font-weight="800" fill="#1a1a2e" text-anchor="middle">156</text>
    <text x="69" y="572" font-family="'Rounded Mplus 1c'" font-size="10" font-weight="700" fill="#64748b" text-anchor="middle">総回答数</text>

    <rect x="134" y="508" width="107" height="80" rx="16" fill="white" filter="url(#cardShadow2)"/>
    <text x="187" y="540" font-family="Inter" font-size="24" font-weight="800" fill="#2563b0" text-anchor="middle">122</text>
    <text x="187" y="572" font-family="'Rounded Mplus 1c'" font-size="10" font-weight="700" fill="#64748b" text-anchor="middle">正解数</text>

    <rect x="252" y="508" width="107" height="80" rx="16" fill="white" filter="url(#cardShadow2)"/>
    <text x="305" y="540" font-family="Inter" font-size="24" font-weight="800" fill="#1a1a2e" text-anchor="middle">48</text>
    <text x="305" y="572" font-family="'Rounded Mplus 1c'" font-size="10" font-weight="700" fill="#64748b" text-anchor="middle">穴埋め回答数</text>

    <!-- Bookmarked Words Preview -->
    <rect x="16" y="602" width="343" height="118" rx="20" fill="white" filter="url(#cardShadow2)"/>
    <text x="32" y="630" font-family="'Rounded Mplus 1c'" font-size="14" font-weight="800" fill="#1a1a2e">ブックマーク単語</text>
    <!-- Word row 1 -->
    <text x="32" y="656" font-family="Inter" font-size="13" font-weight="700" fill="#1a1a2e">difficult</text>
    <text x="120" y="656" font-family="'Rounded Mplus 1c'" font-size="13" font-weight="700" fill="#64748b">難しい</text>
    <text x="330" y="656" font-family="Inter" font-size="11" font-weight="700" fill="#f97316" text-anchor="end">★</text>
    <line x1="32" y1="666" x2="343" y2="666" stroke="#e2e6f0" stroke-width="1"/>
    <!-- Word row 2 -->
    <text x="32" y="686" font-family="Inter" font-size="13" font-weight="700" fill="#1a1a2e">environment</text>
    <text x="140" y="686" font-family="'Rounded Mplus 1c'" font-size="13" font-weight="700" fill="#64748b">環境</text>
    <text x="330" y="686" font-family="Inter" font-size="11" font-weight="700" fill="#f97316" text-anchor="end">★</text>
    <line x1="32" y1="696" x2="343" y2="696" stroke="#e2e6f0" stroke-width="1"/>
    <!-- Word row 3 -->
    <text x="32" y="712" font-family="Inter" font-size="13" font-weight="700" fill="#1a1a2e">experience</text>
    <text x="130" y="712" font-family="'Rounded Mplus 1c'" font-size="13" font-weight="700" fill="#64748b">経験</text>
    <text x="330" y="712" font-family="Inter" font-size="11" font-weight="700" fill="#f97316" text-anchor="end">★</text>

    <!-- Bottom Tab Bar -->
    <rect x="0" y="732" width="375" height="80" fill="url(#navGrad2)"/>
    <!-- Nav item 1 - 学習 -->
    <g transform="translate(47,745)">
      <rect x="8" y="0" width="16" height="12" rx="2" fill="rgba(255,255,255,0.5)"/>
      <text x="16" y="32" font-family="'Rounded Mplus 1c'" font-size="10" font-weight="700" fill="rgba(255,255,255,0.5)" text-anchor="middle">学習</text>
    </g>
    <!-- Nav item 2 - 復習 -->
    <g transform="translate(141,745)">
      <circle cx="16" cy="6" r="7" fill="none" stroke="rgba(255,255,255,0.5)" stroke-width="1.5"/>
      <text x="16" y="32" font-family="'Rounded Mplus 1c'" font-size="10" font-weight="700" fill="rgba(255,255,255,0.5)" text-anchor="middle">復習</text>
    </g>
    <!-- Nav item 3 - マイページ (active) -->
    <g transform="translate(235,745)">
      <rect x="-12" y="-4" width="56" height="52" rx="12" fill="rgba(255,255,255,0.12)"/>
      <circle cx="16" cy="5" r="5" fill="white"/>
      <path d="M6,18 Q16,10 26,18" fill="none" stroke="white" stroke-width="1.5"/>
      <text x="16" y="32" font-family="'Rounded Mplus 1c'" font-size="10" font-weight="700" fill="white" text-anchor="middle">マイページ</text>
    </g>
    <!-- Nav item 4 - 管理 -->
    <g transform="translate(329,745)">
      <rect x="4" y="0" width="16" height="3" rx="1" fill="rgba(255,255,255,0.5)"/>
      <rect x="4" y="5" width="16" height="3" rx="1" fill="rgba(255,255,255,0.5)"/>
      <rect x="4" y="10" width="16" height="3" rx="1" fill="rgba(255,255,255,0.5)"/>
      <text x="12" y="32" font-family="'Rounded Mplus 1c'" font-size="10" font-weight="700" fill="rgba(255,255,255,0.5)" text-anchor="middle">管理</text>
    </g>

    <!-- Home indicator -->
    <rect x="122" y="798" width="131" height="5" rx="2.5" fill="#1a1a2e" opacity="0.2"/>
  </g>
</svg>